<!DOCTYPE svg PUBLIC "-//W3C//DTD SVG 1.1//EN" "http://www.w3.org/Graphics/SVG/1.1/DTD/svg11.dtd">
<!-- Uploaded to: SVG Repo, www.svgrepo.com, Transformed by: SVG Repo Mixer Tools -->
<svg width="199px" height="199px" viewBox="-12.24 -12.24 48.48 48.48" fill="none" xmlns="http://www.w3.org/2000/svg" stroke="#ffffff">
<g id="SVGRepo_bgCarrier" stroke-width="0" transform="translate(0,0), scale(1)">
<path transform="translate(-12.24, -12.24), scale(1.5150000000000001)" d="M16,25.782406151513843C18.310358585569745,26.02817529867521,20.620787164289982,27.402970579572187,22.784883570219527,26.55748491236364C25.03881920976088,25.676900169086363,26.392391524995915,23.400185440735,27.544401419031125,21.272151474527604C28.758500765355848,19.029423646662057,29.63645763891742,16.600025544636036,29.555233622594507,14.05105163504006C29.46814005683636,11.317879392871962,29.346338802236584,7.92353737383104,27.070722976851933,6.40716393373998C24.697054436811467,4.825452341850922,21.513437256786204,7.265791799412547,18.696821756507166,6.8154685583046515C16.420555689590557,6.451536913116922,14.798817859831125,3.9171127315423107,12.499226025503098,4.077458748820286C10.093428251227238,4.245210297474604,7.963470210099595,5.8452720624153045,6.390759900752267,7.673546056011244C4.821109083692495,9.498263393209815,4.142328604591874,11.863810624174022,3.757432128067956,14.239784477255938C3.3670144101958353,16.649841066553982,2.9465229997538045,19.289355601617423,4.166459716130177,21.404196769668637C5.3621202666933385,23.476953595003526,7.839229527704721,24.376022190634224,10.083442610066976,25.206343002188092C11.98025423906035,25.908131162826024,13.988873049656839,25.568468385096864,16,25.782406151513843" fill="#866246" strokewidth="0"/>
</g>
<g id="SVGRepo_tracerCarrier" stroke-linecap="round" stroke-linejoin="round" stroke="#CCCCCC" stroke-width="0.096"/>
<g id="SVGRepo_iconCarrier"> <path d="M4 12H20M12 4V20" stroke="#ffffff" stroke-width="1.296" stroke-linecap="round" stroke-linejoin="round"/> </g>
</svg>